<svg width="145" height="24" viewBox="0 0 145 24" fill="none" xmlns="http://www.w3.org/2000/svg">
<path fill-rule="evenodd" clip-rule="evenodd" d="M16.25 2H8.75C5.29875 2 2.5 4.79875 2.5 8.25V15.75C2.5 19.2013 5.29875 22 8.75 22H16.25C19.7013 22 22.5 19.2013 22.5 15.75V8.25C22.5 4.79875 19.7013 2 16.25 2ZM20.625 15.75C20.625 18.1625 18.6625 20.125 16.25 20.125H8.75C6.3375 20.125 4.375 18.1625 4.375 15.75V8.25C4.375 5.8375 6.3375 3.875 8.75 3.875H16.25C18.6625 3.875 20.625 5.8375 20.625 8.25V15.75ZM12.5002 7.2002C9.84939 7.2002 7.7002 9.34939 7.7002 12.0002C7.7002 14.651 9.84939 16.8002 12.5002 16.8002C15.151 16.8002 17.3002 14.651 17.3002 12.0002C17.3002 9.34939 15.151 7.2002 12.5002 7.2002ZM12.5002 15.0002C10.8466 15.0002 9.5002 13.6538 9.5002 12.0002C9.5002 10.3454 10.8466 9.0002 12.5002 9.0002C14.1538 9.0002 15.5002 10.3454 15.5002 12.0002C15.5002 13.6538 14.1538 15.0002 12.5002 15.0002ZM18.4998 6.6C18.4998 6.93137 18.2312 7.2 17.8998 7.2C17.5684 7.2 17.2998 6.93137 17.2998 6.6C17.2998 6.26863 17.5684 6 17.8998 6C18.2312 6 18.4998 6.26863 18.4998 6.6Z" fill="url(#paint0_linear_18250_8257)"/>
<path d="M52.286 17.3635H53.4811C53.4811 17.3635 53.8424 17.3234 54.0261 17.1247C54.1961 16.9422 54.1899 16.5996 54.1899 16.5996C54.1899 16.5996 54.1661 14.9958 54.9112 14.7595C55.645 14.527 56.5876 16.3096 57.5864 16.9959C58.3414 17.5147 58.9152 17.401 58.9152 17.401L61.5867 17.3635C61.5867 17.3635 62.9843 17.2772 62.3217 16.1784C62.268 16.0884 61.9355 15.3658 60.3353 13.8807C58.6602 12.3256 58.8852 12.5781 60.9029 9.88915C62.1317 8.25152 62.623 7.25145 62.4692 6.82392C62.323 6.41639 61.4192 6.52389 61.4192 6.52389L58.4139 6.5414C58.4139 6.5414 58.1914 6.51139 58.0252 6.61015C57.8639 6.70766 57.7601 6.93268 57.7601 6.93268C57.7601 6.93268 57.2839 8.20027 56.6488 9.27785C55.31 11.5518 54.7737 11.6718 54.5549 11.5305C54.0461 11.2017 54.1736 10.2079 54.1736 9.50287C54.1736 7.29895 54.5074 6.38013 53.5223 6.14262C53.1948 6.06386 52.9548 6.01136 52.1185 6.00261C51.0459 5.99136 50.1371 6.00636 49.6233 6.25763C49.2808 6.42514 49.017 6.79892 49.1783 6.82017C49.377 6.84642 49.8271 6.94143 50.0658 7.26645C50.3746 7.68523 50.3634 8.6278 50.3634 8.6278C50.3634 8.6278 50.5409 11.2217 49.9496 11.5443C49.5433 11.7655 48.987 11.3143 47.7932 9.25035C47.1819 8.19402 46.7193 7.02518 46.7193 7.02518C46.7193 7.02518 46.6306 6.80767 46.4718 6.69141C46.2793 6.55015 46.0093 6.50514 46.0093 6.50514L43.1516 6.52264C43.1516 6.52264 42.7228 6.53515 42.5653 6.72141C42.4253 6.88767 42.554 7.2302 42.554 7.2302C42.554 7.2302 44.7917 12.4643 47.3244 15.1033C49.6483 17.5222 52.286 17.3635 52.286 17.3635Z" fill="#1E88E5"/>
<path fill-rule="evenodd" clip-rule="evenodd" d="M85 2H100C101.379 2 102.5 3.12125 102.5 4.5V19.5C102.5 20.8787 101.379 22 100 22H96.25V15.125H98.125L99.375 12H96.25V9.5C96.25 8.86577 96.7231 8.86942 97.3355 8.87416C97.3893 8.87458 97.4442 8.875 97.5 8.875H98.75V5.75H96.25C94.1788 5.75 92.5 7.42875 92.5 9.5V12H90V15.125H92.5V22H85C83.6212 22 82.5 20.8787 82.5 19.5V4.5C82.5 3.12125 83.6212 2 85 2Z" fill="#1976D2"/>
<path d="M132.292 5.0251C133.47 5.0251 134.429 5.98373 134.429 7.16224C134.429 8.33977 133.47 9.29839 132.292 9.29839C131.114 9.29839 130.155 8.33977 130.155 7.16224C130.155 5.98348 131.114 5.0251 132.292 5.0251ZM132.292 12.322C135.139 12.322 137.454 10.0077 137.454 7.16224C137.454 4.31528 135.139 2 132.292 2C129.445 2 127.13 4.31552 127.13 7.16224C127.13 10.0077 129.445 12.322 132.292 12.322ZM134.38 16.5323C135.442 16.2905 136.455 15.8709 137.377 15.2913C137.717 15.0777 137.957 14.7381 138.046 14.3471C138.135 13.9561 138.066 13.5457 137.852 13.2063C137.746 13.038 137.609 12.8923 137.447 12.7773C137.285 12.6624 137.102 12.5805 136.908 12.5363C136.714 12.4922 136.514 12.4866 136.318 12.52C136.122 12.5534 135.935 12.6251 135.767 12.7309C133.652 14.0604 130.93 14.0594 128.817 12.7309C128.649 12.625 128.462 12.5534 128.266 12.52C128.07 12.4865 127.87 12.4921 127.676 12.5362C127.483 12.5804 127.3 12.6623 127.138 12.7773C126.976 12.8922 126.838 13.038 126.732 13.2063C126.519 13.5456 126.449 13.9559 126.538 14.3469C126.626 14.7379 126.867 15.0776 127.206 15.2913C128.128 15.8707 129.141 16.2902 130.203 16.5323L127.317 19.4183C127.034 19.702 126.875 20.0867 126.875 20.4878C126.875 20.8888 127.034 21.2735 127.318 21.5571C127.602 21.8406 127.986 21.9999 128.387 21.9998C128.788 21.9997 129.173 21.8403 129.457 21.5567L132.291 18.7213L135.128 21.5569C135.268 21.6974 135.435 21.8088 135.618 21.8848C135.802 21.9609 135.998 22 136.197 22C136.395 22 136.592 21.9609 136.775 21.8848C136.958 21.8088 137.125 21.6974 137.265 21.5569C137.406 21.4167 137.517 21.2501 137.594 21.0666C137.67 20.8832 137.709 20.6865 137.709 20.4879C137.709 20.2892 137.67 20.0926 137.594 19.9091C137.517 19.7257 137.406 19.559 137.265 19.4188L134.38 16.5323Z" fill="#EE8208"/>
<defs>
<linearGradient id="paint0_linear_18250_8257" x1="5.42912" y1="19.0709" x2="19.5709" y2="4.92912" gradientUnits="userSpaceOnUse">
<stop stop-color="#FFC107"/>
<stop offset="0.507" stop-color="#F44336"/>
<stop offset="0.99" stop-color="#9C27B0"/>
</linearGradient>
</defs>
</svg>
