<svg width="19" height="22" viewBox="0 0 19 22" fill="none" xmlns="http://www.w3.org/2000/svg">
<path fill-rule="evenodd" clip-rule="evenodd" d="M14.2778 2.3842C12.2821 1.21815 9.81732 1.19959 7.80431 2.33546C7.56381 2.47116 7.25884 2.38621 7.12313 2.14571C6.98743 1.90521 7.07238 1.60024 7.31288 1.46454C9.63558 0.153919 12.4796 0.175333 14.7823 1.52078C17.085 2.86623 18.5 5.3333 18.4986 8.00025L17.9986 8H18.4986V8.00025V12C18.4986 12.2761 18.2747 12.5 17.9986 12.5C17.7225 12.5 17.4986 12.2761 17.4986 12V8L17.4986 7.99974C17.4998 5.68838 16.2734 3.55026 14.2778 2.3842ZM5.00937 4.33571C5.25474 4.46239 5.35096 4.764 5.22429 5.00937C4.74707 5.93372 4.49869 6.9591 4.5 7.99937L4.5 8L4.5 13C4.5 13.9793 4.09777 14.8647 3.44949 15.5H16C16.2761 15.5 16.5 15.7239 16.5 16C16.5 16.2761 16.2761 16.5 16 16.5H1C0.723858 16.5 0.5 16.2761 0.5 16C0.5 15.7239 0.723858 15.5 1 15.5C2.38071 15.5 3.5 14.3807 3.5 13V8.00024M9.01911 19.5675C9.25798 19.4289 9.56394 19.5102 9.7025 19.7491C9.97085 20.2117 10.4652 20.4965 11 20.4965C11.5348 20.4965 12.0292 20.2117 12.2975 19.7491C12.4361 19.5102 12.742 19.4289 12.9809 19.5675C13.2197 19.7061 13.3011 20.012 13.1625 20.2509C12.7153 21.0219 11.8913 21.4965 11 21.4965C10.1087 21.4965 9.28475 21.0219 8.8375 20.2509C8.69894 20.012 8.78025 19.7061 9.01911 19.5675Z" fill="#414141"/>
</svg>
